<svg width="21" height="20" viewBox="0 0 21 20" fill="none" xmlns="http://www.w3.org/2000/svg">
<g clip-path="url(#clip0_19406_1558)">
<path d="M17.7647 2.0669H16.431V1.74585C16.431 1.42226 16.1644 1.15991 15.8354 1.15991C15.5065 1.15991 15.2398 1.42226 15.2398 1.74585V2.0669H13.5961V1.74585C13.5961 1.42226 13.3294 1.15991 13.0005 1.15991C12.6715 1.15991 12.4048 1.42226 12.4048 1.74585V2.0669H10.7612V1.74585C10.7612 1.42226 10.4945 1.15991 10.1656 1.15991C9.83661 1.15991 9.56993 1.42226 9.56993 1.74585V2.0669H7.92628V1.74585C7.92628 1.42226 7.65959 1.15991 7.33064 1.15991C7.00169 1.15991 6.735 1.42226 6.735 1.74585V2.0669H5.09136V1.74585C5.09136 1.42226 4.82467 1.15991 4.49572 1.15991C4.16677 1.15991 3.90008 1.42226 3.90008 1.74585V2.0669H2.56641C1.15129 2.0669 0 3.19944 0 4.59147V16.3155C0 17.7076 1.15129 18.8401 2.56641 18.8401H17.7647C19.1798 18.8401 20.3311 17.7075 20.3311 16.3155V4.59147C20.3311 3.19944 19.1798 2.0669 17.7647 2.0669ZM19.1399 16.3155C19.1399 17.0614 18.523 17.6682 17.7647 17.6682H2.56641C1.80816 17.6682 1.19128 17.0614 1.19128 16.3155V6.73233H19.1399V16.3155ZM19.1399 5.56046H1.19128V4.59147C1.19128 3.84562 1.80816 3.23878 2.56641 3.23878H3.90008V3.4653C3.90008 3.7889 4.16677 4.05124 4.49572 4.05124C4.82467 4.05124 5.09136 3.7889 5.09136 3.4653V3.23878H6.735V3.4653C6.735 3.7889 7.00169 4.05124 7.33064 4.05124C7.65959 4.05124 7.92628 3.7889 7.92628 3.4653V3.23878H9.56993V3.4653C9.56993 3.7889 9.83661 4.05124 10.1656 4.05124C10.4945 4.05124 10.7612 3.7889 10.7612 3.4653V3.23878H12.4048V3.4653C12.4048 3.7889 12.6715 4.05124 13.0005 4.05124C13.3294 4.05124 13.5961 3.7889 13.5961 3.4653V3.23878H15.2398V3.4653C15.2398 3.7889 15.5065 4.05124 15.8354 4.05124C16.1644 4.05124 16.431 3.7889 16.431 3.4653V3.23878H17.7647C18.523 3.23878 19.1399 3.84562 19.1399 4.59147V5.56046Z" fill="#52555F"/>
<path d="M6.63996 7.98169H4.28961C3.96066 7.98169 3.69397 8.24403 3.69397 8.56762V10.9598C3.69397 11.2834 3.96066 11.5457 4.28961 11.5457H6.63996C6.96891 11.5457 7.2356 11.2834 7.2356 10.9598V8.56762C7.2356 8.24403 6.96895 7.98169 6.63996 7.98169ZM6.04432 10.3738H4.88525V9.15356H6.04432V10.3738Z" fill="#52555F"/>
<path d="M11.3408 7.98169H8.99041C8.66146 7.98169 8.39478 8.24403 8.39478 8.56762V10.9598C8.39478 11.2834 8.66146 11.5457 8.99041 11.5457H11.3408C11.6697 11.5457 11.9364 11.2834 11.9364 10.9598V8.56762C11.9364 8.24403 11.6697 7.98169 11.3408 7.98169ZM10.7451 10.3738H9.58605V9.15356H10.7451V10.3738Z" fill="#52555F"/>
<path d="M16.0414 7.98169H13.6911C13.3621 7.98169 13.0955 8.24403 13.0955 8.56762V10.9598C13.0955 11.2834 13.3621 11.5457 13.6911 11.5457H16.0414C16.3704 11.5457 16.6371 11.2834 16.6371 10.9598V8.56762C16.6371 8.24403 16.3704 7.98169 16.0414 7.98169ZM15.4458 10.3738H14.2867V9.15356H15.4458V10.3738Z" fill="#52555F"/>
<path d="M6.63996 12.5256H4.28961C3.96066 12.5256 3.69397 12.788 3.69397 13.1116V15.5037C3.69397 15.8273 3.96066 16.0897 4.28961 16.0897H6.63996C6.96891 16.0897 7.2356 15.8273 7.2356 15.5037V13.1116C7.2356 12.788 6.96895 12.5256 6.63996 12.5256ZM6.04432 14.9178H4.88525V13.6975H6.04432V14.9178Z" fill="#52555F"/>
<path d="M11.3408 12.5256H8.99041C8.66146 12.5256 8.39478 12.788 8.39478 13.1116V15.5037C8.39478 15.8273 8.66146 16.0897 8.99041 16.0897H11.3408C11.6697 16.0897 11.9364 15.8273 11.9364 15.5037V13.1116C11.9364 12.788 11.6697 12.5256 11.3408 12.5256ZM10.7451 14.9178H9.58605V13.6975H10.7451V14.9178Z" fill="#52555F"/>
<path d="M16.0414 12.5256H13.6911C13.3621 12.5256 13.0955 12.788 13.0955 13.1116V15.5037C13.0955 15.8273 13.3621 16.0897 13.6911 16.0897H16.0414C16.3704 16.0897 16.6371 15.8273 16.6371 15.5037V13.1116C16.6371 12.788 16.3704 12.5256 16.0414 12.5256ZM15.4458 14.9178H14.2867V13.6975H15.4458V14.9178Z" fill="#52555F"/>
</g>
<defs>
<clipPath id="clip0_19406_1558">
<rect width="20.3311" height="20" fill="white"/>
</clipPath>
</defs>
</svg>
